<svg width="100" height="27" viewBox="0 0 100 27" fill="none" xmlns="http://www.w3.org/2000/svg">
<path d="M0 6.52968H9.23221V9.58665H3.5809V12.6012H8.81883V15.582H3.5809V19.9057H0V6.52968ZM18.5324 15.5697C18.5324 16.5833 18.2307 16.946 17.0812 16.946H16.4603C15.3108 16.946 15.0091 16.5833 15.0091 15.5697V6.52968H11.4299V15.7218C11.4299 18.8566 13.1829 20.0985 16.0835 20.0985H17.4597C20.3621 20.0985 22.1133 18.8566 22.1133 15.7218V6.52968H18.5324V15.5697ZM37.1399 19.9074H40.7208V6.52968H37.1399V19.9074ZM53.6979 10.9064V15.5307C53.6979 18.8566 51.9449 20.0985 48.8559 20.0985H47.6872C44.5965 20.0985 42.8453 18.8566 42.8453 15.5307V10.9064C42.8453 7.58052 44.5982 6.33862 47.6872 6.33862H48.8559C51.9467 6.33862 53.6979 7.58052 53.6979 10.9064ZM50.1187 10.7719C50.1187 9.75825 49.8169 9.39559 48.6675 9.39559H47.8756C46.7262 9.39559 46.4244 9.75825 46.4244 10.7719V15.6634C46.4244 16.6753 46.7262 17.0398 47.8756 17.0398H48.6675C49.8169 17.0398 50.1187 16.6771 50.1187 15.6634V10.7719ZM59.4678 9.58665H64.1911L64.983 6.52968H59.4678C59.1486 6.52968 58.8521 6.54914 58.5695 6.58099C56.2601 6.84104 55.1351 8.13954 55.1351 10.1987V10.733C55.1351 12.5109 55.7578 13.6768 57.6416 14.3065L60.619 15.3008C61.0515 15.4529 61.2033 15.6068 61.2033 16.0279V16.1995C61.2033 16.5621 60.9765 16.8487 60.4498 16.8487H55.9252L55.1264 19.9057H60.4515C63.3155 19.9057 64.7859 18.4727 64.7859 16.1411V15.644C64.7859 14.4233 64.376 13.514 63.5475 12.8754C63.2074 12.6135 62.7992 12.3959 62.3178 12.2243L60.3224 11.5149L59.3596 11.1735C58.9079 11.0214 58.7195 10.848 58.7195 10.4093V10.2377C58.7195 9.87501 58.9462 9.58842 59.473 9.58842L59.4678 9.58665ZM32.4706 15.138L35.4532 19.9074H31.3944L29.0153 15.7519H27.8641V19.9074H24.2762V6.52968H30.149C33.2258 6.52968 34.9456 7.66897 34.9456 10.5614V11.6918C34.9456 13.4733 34.0962 14.602 32.4723 15.1398L32.4706 15.138ZM31.356 10.5614C31.356 9.92985 31.0543 9.56542 30.0915 9.56542H27.8641V12.6878H30.0915C31.0543 12.6878 31.356 12.3234 31.356 11.6918V10.5614ZM70.7599 14.3278L72.0733 9.49819L72.928 12.5835H76.4444L75.4693 9.39736H72.0995L72.8792 6.53145H69.6663L65.5586 19.9092H69.2512L69.9593 17.291H74.1978L74.906 19.9092H78.6735L76.9607 14.3295H70.7599V14.3278Z" fill="#E21500"/>
<path d="M99.918 15.0106L90.6631 19.5147V26.4371H89.3689L86.2485 16.272L91.3434 13.8183H81.4955L79.9954 8.91438L98.5069 0L100 4.86496L89.6742 9.8626L98.4947 10.3615L99.9198 15.0088L99.918 15.0106Z" fill="#E21500"/>
</svg>
